HIERARCHY
ROOT Hips
{
	OFFSET -3.958830 18.904000 13.208200
	CHANNELS 6 Xposition Yposition Zposition Zrotation Yrotation Xrotation 
	JOINT LHipJoint
	{
		OFFSET 0.000000 0.000000 0.000000
		CHANNELS 3 Zrotation Yrotation Xrotation
		JOINT LeftUpLeg
		{
			OFFSET 1.800000 -1.400000 0.085000
			CHANNELS 3 Zrotation Yrotation Xrotation
			JOINT LeftLeg
			{
				OFFSET 2.215000 -6.000000 0.000000
				CHANNELS 3 Zrotation Yrotation Xrotation
				JOINT LeftFoot
				{
					OFFSET 2.500000 -6.900000 0.000000
					CHANNELS 3 Zrotation Yrotation Xrotation
					JOINT LeftToeBase
					{
						OFFSET 0.200000 -0.500000 1.950000
						CHANNELS 3 Zrotation Yrotation Xrotation
						End Site
						{
							OFFSET 0.000000 0.000000 0.000000
						}
					}
				}
			}
		}
	}
	JOINT RHipJoint
	{
		OFFSET 0.000000 0.000000 0.000000
		CHANNELS 3 Zrotation Yrotation Xrotation
		JOINT RightUpLeg
		{
			OFFSET -1.800000 -1.400000 0.085000
			CHANNELS 3 Zrotation Yrotation Xrotation
			JOINT RightLeg
			{
				OFFSET -2.215000 -6.000000 0.000000
				CHANNELS 3 Zrotation Yrotation Xrotation
				JOINT RightFoot
				{
					OFFSET -2.500000 -6.900000 0.000000
					CHANNELS 3 Zrotation Yrotation Xrotation
					JOINT RightToeBase
					{
						OFFSET -0.200000 -0.500000 1.950000
						CHANNELS 3 Zrotation Yrotation Xrotation
						End Site
						{
							OFFSET 0.000000 0.000000 0.000000
						}
					}
				}
			}
		}
	}
	JOINT LowerBack
	{
		OFFSET 0.000000 0.000000 0.000000
		CHANNELS 3 Zrotation Yrotation Xrotation
		JOINT Spine
		{
			OFFSET -0.087000 1.940000 -0.288900
			CHANNELS 3 Zrotation Yrotation Xrotation
			JOINT Spine1
			{
				OFFSET 0.000000 1.950000 0.060000
				CHANNELS 3 Zrotation Yrotation Xrotation
				JOINT Neck
				{
					OFFSET 0.000000 0.000000 0.000000
					CHANNELS 3 Zrotation Yrotation Xrotation
					JOINT Neck1
					{
						OFFSET 0.000000 1.600000 0.340000
						CHANNELS 3 Zrotation Yrotation Xrotation
						JOINT Head
						{
							OFFSET 0.000000 1.667000 -0.240000
							CHANNELS 3 Zrotation Yrotation Xrotation
							End Site
							{
								OFFSET 0.000000 0.000000 0.000000
							}
						}
					}
				}
				JOINT LeftShoulder
				{
					OFFSET 0.000000 0.000000 0.000000
					CHANNELS 3 Zrotation Yrotation Xrotation
					JOINT LeftArm
					{
						OFFSET 2.700000 1.550000 -0.730000
						CHANNELS 3 Zrotation Yrotation Xrotation
						JOINT LeftForeArm
						{
							OFFSET 5.450000 0.000000 0.000000
							CHANNELS 3 Zrotation Yrotation Xrotation
							JOINT LeftHand
							{
								OFFSET 3.450000 0.000000 0.000000
								CHANNELS 3 Zrotation Yrotation Xrotation
								JOINT LeftHandIndex1
								{
									OFFSET 0.750000 0.000000 0.000000
									CHANNELS 3 Zrotation Yrotation Xrotation
									End Site
									{
										OFFSET 0.000000 0.000000 0.000000
									}
								}
							}
						}
					}
				}
				JOINT RightShoulder
				{
					OFFSET 0.000000 0.000000 0.000000
					CHANNELS 3 Zrotation Yrotation Xrotation
					JOINT RightArm
					{
						OFFSET -2.700000 1.550000 -0.730000
						CHANNELS 3 Zrotation Yrotation Xrotation
						JOINT RightForeArm
						{
							OFFSET -5.450000 0.000000 0.000000
							CHANNELS 3 Zrotation Yrotation Xrotation
							JOINT RightHand
							{
								OFFSET -3.450000 0.000000 0.000000
								CHANNELS 3 Zrotation Yrotation Xrotation
								JOINT RightHandIndex1
								{
									OFFSET -0.750000 0.000000 0.000000
									CHANNELS 3 Zrotation Yrotation Xrotation
									End Site
									{
										OFFSET 0.000000 0.000000 0.000000
									}
								}
							}
						}
					}
				}
			}
		}
	}
}
MOTION
Frames: 8
Frame Time: 0.016667
-0.006250 16.445220 -2.380000 -4.533220 1.298591 14.523968 -15.649015 10.933338 5.216904 20.572021 -4.022428 -46.777905 -8.880117 12.367196 34.741531 -0.268848 7.790318 1.781187 0.695190 0.272050 0.473060 18.315743 -8.513250 3.652888 -20.871466 6.835433 -40.722389 14.550655 -10.886124 33.653534 -0.500626 -5.807488 2.373611 0.253170 0.216960 0.185880 -3.008848 -1.942950 -8.892833 -0.227639 3.474788 25.784276 -0.224029 3.972678 -1.904342 0.479794 -2.869194 -7.864915 -3.876614 -0.251920 18.539711 3.174490 -1.353270 -17.570540 -17.330048 0.511893 1.239472 -22.091915 11.462319 -6.463514 34.589241 -38.497451 -9.706212 -3.579658 3.027000 0.582300 0.082420 -0.105720 0.295210 16.541683 4.954981 5.233131 29.288794 -11.119581 -14.156447 4.844549 65.534753 0.504192 1.582254 -1.885489 -0.214770 0.241310 -0.162450 -0.288400 
-0.041990 16.383790 -2.385520 -4.533879 1.593445 13.439556 -15.646116 10.825817 5.280610 20.504736 -3.652764 -48.079244 -7.242372 13.044369 38.520473 -0.139552 8.329248 1.600309 0.697950 0.282020 0.462670 18.345806 -8.434477 3.710163 -21.566704 7.374236 -40.701968 15.382576 -11.802110 35.840175 -0.596805 -6.285888 2.223677 0.244700 0.207310 0.181750 -3.060513 -1.833030 -9.017849 0.857033 3.618417 26.982304 -0.768612 4.651024 -1.911021 0.649315 -3.390813 -8.315159 -4.759318 -0.603028 19.179794 3.528620 -2.103700 -17.377980 -18.957534 -1.340899 1.812773 -21.490835 11.202085 -5.810778 30.027932 -32.997808 -6.991459 -3.580718 3.062158 0.570790 0.067310 -0.096640 0.305960 17.774554 7.511685 5.644328 25.894898 -10.113251 -13.214364 0.651206 59.660004 -0.974655 1.614283 -1.811564 -0.193970 0.234090 -0.176670 -0.269470 
-0.074080 16.331300 -2.378890 -4.489860 2.115725 12.166310 -15.640097 10.796226 5.257498 19.994641 -3.409998 -48.864302 -5.073118 13.167426 41.736248 -0.034192 8.659147 1.491127 0.715140 0.306550 0.474760 18.362730 -8.388432 3.780450 -22.352145 7.846798 -40.468701 16.433080 -12.924722 38.106375 -0.713859 -6.836956 2.047502 0.242460 0.184340 0.178510 -3.093194 -1.772120 -9.110665 1.968649 3.673974 27.684810 -1.122978 5.218920 -1.754831 0.916499 -3.696526 -8.681102 -5.378706 -1.074504 20.135497 3.381710 -2.701530 -16.849700 -20.575071 -2.945837 2.213942 -21.298067 10.333314 -5.126540 25.476359 -27.396802 -4.814431 -3.583761 3.088076 0.551220 0.053640 -0.086000 0.311900 18.816692 9.606604 6.035609 22.626268 -8.708035 -11.811903 -1.901914 53.173808 -1.386152 1.665545 -1.768668 -0.164620 0.215110 -0.202360 -0.256510 
-0.113300 16.285590 -2.350170 -4.285142 2.580509 10.383852 -15.618002 10.919879 5.098290 18.973877 -3.185610 -48.417588 -2.719353 12.841646 44.154831 0.019864 8.824698 1.445690 0.686130 0.265520 0.469010 18.358225 -8.465486 3.829270 -22.878271 8.311163 -39.660415 16.989635 -13.968206 40.611360 -0.825010 -7.384211 1.877112 0.212110 0.184190 0.173500 -3.115602 -1.720422 -9.143960 2.732334 3.835841 28.059219 -1.572221 5.749344 -1.337013 1.286939 -3.439521 -9.187621 -5.316724 -1.336586 22.059485 3.080830 -2.912300 -15.707430 -21.974793 -4.749672 2.766270 -21.192216 9.816675 -4.556500 20.667930 -22.350075 -3.232928 -3.606888 3.065077 0.556470 0.053170 -0.088050 0.302940 19.448517 11.427366 6.463698 20.877946 -6.546626 -10.477768 -3.347062 46.123783 -1.326683 1.718487 -1.689760 -0.170830 0.209850 -0.195460 -0.260830 
-0.150530 16.249190 -2.298820 -4.080455 3.305161 8.247162 -15.587496 11.108902 4.917903 18.037769 -2.959228 -47.411224 -0.691950 12.446716 46.221453 0.049402 8.966334 1.393855 0.687770 0.241470 0.493430 18.341334 -8.615179 3.817851 -23.196594 8.661897 -37.930471 17.693783 -15.004129 42.636696 -0.938292 -7.878134 1.719155 0.198210 0.161670 0.167210 -3.135084 -1.682525 -9.150604 3.557343 3.858831 28.247249 -1.861257 6.155783 -1.058337 1.574647 -3.146042 -9.416721 -5.286154 -1.366854 24.424534 3.023290 -3.043390 -14.851290 -23.480256 -5.928647 3.051161 -21.521798 9.343108 -4.140095 16.524394 -18.627756 -2.325469 -3.609634 3.044969 0.579990 0.037530 -0.085180 0.290650 20.317707 12.557827 6.610133 19.205635 -3.711111 -8.767881 -3.430838 38.681726 -0.905855 1.791131 -1.617971 -0.178190 0.197560 -0.197420 -0.282080 
-0.196850 16.210050 -2.228600 -4.072035 4.227821 6.194971 -15.539584 11.296101 4.693433 17.384861 -2.481021 -46.032609 1.266634 11.882483 47.481847 0.057081 8.981878 1.377224 0.706420 0.256980 0.518770 18.335524 -8.833392 3.795134 -22.964132 9.065876 -36.069405 18.050253 -15.854633 44.570692 -1.055386 -8.309823 1.584550 0.204960 0.139120 0.169400 -3.198984 -1.502863 -9.122942 4.549590 3.813145 27.490856 -2.190977 6.430677 -0.501813 1.846742 -2.342567 -9.333143 -4.365699 -1.491790 27.041059 2.742720 -2.968400 -14.156880 -24.508077 -6.509496 3.196356 -22.303765 9.042671 -3.969702 12.887564 -16.557460 -1.840427 -3.609569 3.024932 0.592640 0.031300 -0.069450 0.286880 20.651512 12.703300 6.215397 19.100892 0.491543 -6.871294 -3.212295 30.897859 -0.667303 1.882701 -1.528243 -0.172280 0.188900 -0.208690 -0.293820 
-0.250020 16.168320 -2.148450 -4.036676 4.902117 4.137039 -15.488483 11.478197 4.466858 16.879887 -1.890506 -44.615668 3.255034 11.342918 48.802009 0.109866 9.011798 1.362906 0.730390 0.300180 0.532310 18.330915 -9.084386 3.744957 -22.645825 9.352524 -33.857964 18.439228 -16.543948 45.959660 -1.159272 -8.647768 1.487908 0.217570 0.119900 0.166390 -3.273057 -1.264495 -9.074390 5.351088 3.989112 26.402140 -2.230743 6.781527 -0.102232 1.964989 -1.627701 -9.083322 -3.480054 -1.516071 29.618117 2.805650 -2.946820 -13.389840 -25.091910 -6.504265 3.188764 -23.610284 8.766635 -4.039950 9.239797 -15.670789 -1.513902 -3.590501 3.014566 0.580890 0.023610 -0.047650 0.297350 20.884620 12.396494 5.614322 19.843019 4.244119 -5.259583 -3.076731 24.434185 -0.640006 1.992289 -1.461286 -0.148310 0.183760 -0.234730 -0.283000 
-0.295540 16.117470 -2.057190 -3.873722 5.589947 2.205540 -15.413645 11.645437 4.224511 16.196685 -1.420090 -43.126777 5.508442 10.663988 50.507544 0.164465 9.120974 1.337304 0.734260 0.319220 0.510570 18.348592 -9.356998 3.702740 -22.678285 9.450516 -31.617048 18.888374 -17.308148 47.101460 -1.246714 -8.993961 1.398113 0.227540 0.138140 0.160030 -3.416709 -0.969101 -9.017836 6.508493 3.942758 24.898290 -2.556863 6.921415 0.122216 1.990869 -1.340418 -8.644127 -3.224394 -1.393405 32.051333 2.947570 -3.279710 -12.136560 -25.884291 -6.125386 3.090307 -24.998892 8.805636 -4.190963 6.354333 -15.278668 -1.333723 -3.584193 3.003779 0.566660 0.034880 -0.052950 0.316070 21.496338 11.903506 4.788587 20.792500 7.694299 -3.909756 -2.968367 19.072508 -0.670246 2.082723 -1.412175 -0.144750 0.196540 -0.239880 -0.265450 
